<svg xmlns="http://www.w3.org/2000/svg" viewBox="0 0 38.39 38.24">
  <defs>
    <style>
      .cls-1 {
        fill: #fff;
      }

      .cls-2 {
        fill: #979747;
      }

      .cls-3 {
        fill: #72964c;
      }

      .cls-4 {
        fill: #606031;
      }

      .cls-5 {
        fill: #552516;
      }

      .cls-6 {
        fill: #b46c37;
      }

      .cls-7 {
        fill: #dedad0;
      }

      .cls-8 {
        fill: #dddad0;
      }

      .cls-9 {
        fill: #ddd9d0;
      }

      .cls-10 {
        fill: #ddd9cf;
      }

      .cls-11 {
        fill: #dcd8ce;
      }
    </style>
  </defs>
  <g id="Layer_2" data-name="Layer 2">
    <g id="assets">
      <g>
        <rect class="cls-1" width="37.77" height="37.77"/>
        <g>
          <circle class="cls-2" cx="19.5" cy="19.36" r="18.88"/>
          <g>
            <path class="cls-3" d="M23.17,5.08,23.24,5l.08,1.22-.25.44a8.79,8.79,0,0,1-1.38,2,6.38,6.38,0,0,1-2.61,1.78.38.38,0,0,0-.18.15c-.19.33-.37.66-.55,1-.36.65-.71,1.3-1.07,1.94l-1.74,3.11c-.35.62-.69,1.25-1,1.88-.61,1.08-1.22,2.16-1.82,3.24l-1.31,2.37-1.7,3C9.32,27.72,9,28.35,8.6,29c-.12-.65-.26-1.3-.35-1.95a21.83,21.83,0,0,1-.17-4c0-.21,0-.42,0-.63.06-.53.08-1.06.18-1.59.14-.8.31-1.6.52-2.39a15.14,15.14,0,0,1,1.73-4.08A11.67,11.67,0,0,1,13,11.42a9.55,9.55,0,0,1,3.13-1.78,9.73,9.73,0,0,1,3.39-.52l.32,0a2.72,2.72,0,0,0,1.37-.82A8.07,8.07,0,0,0,23,5.65,3.65,3.65,0,0,0,23.17,5.08Z"/>
            <path class="cls-4" d="M23.17,5.08a3.65,3.65,0,0,1-.14.57,8.07,8.07,0,0,1-1.82,2.62,2.72,2.72,0,0,1-1.37.82l-.32,0a9.73,9.73,0,0,0-3.39.52A9.55,9.55,0,0,0,13,11.42a11.67,11.67,0,0,0-2.45,2.88,15.14,15.14,0,0,0-1.73,4.08c-.21.79-.38,1.59-.52,2.39-.1.53-.12,1.06-.18,1.59-.69,0-1.38.07-2.08.08-.53,0-1.07,0-1.63,0,0-.39,0-.74.09-1.1a19.31,19.31,0,0,1,1.71-6.14,14.66,14.66,0,0,1,4-5.27A9.82,9.82,0,0,1,15,7.75,9.12,9.12,0,0,1,18.86,8,1.52,1.52,0,0,0,20,8a7.86,7.86,0,0,0,1.08-.64A8.27,8.27,0,0,0,23.17,5.08Z"/>
            <path class="cls-4" d="M8.6,29c.36-.63.72-1.26,1.07-1.89l1.7-3,1.31-2.37c.6-1.08,1.21-2.16,1.82-3.24.35-.63.69-1.26,1-1.88l1.74-3.11c.36-.64.71-1.29,1.07-1.94.18-.33.36-.66.55-1a.38.38,0,0,1,.18-.15A6.38,6.38,0,0,0,21.69,8.6a8.79,8.79,0,0,0,1.38-2l.25-.44c0,.37,0,.75,0,1.12l-.09.11c-.47.59-.92,1.2-1.42,1.77-.23.26-.43.49-.3.85a.61.61,0,0,1-.15.13,8.13,8.13,0,0,0-2.72,2.56,11.37,11.37,0,0,0-1.12,2.09,14.92,14.92,0,0,0-1,3.9,17.45,17.45,0,0,0-.13,2.8A13.54,13.54,0,0,0,16.76,24c.1.38.22.76.33,1.14A12.52,12.52,0,0,1,15,26.64,19.8,19.8,0,0,1,8.73,29,.32.32,0,0,1,8.6,29Z"/>
            <path class="cls-5" d="M17.09,25.11c-.11-.38-.23-.76-.33-1.14a13.54,13.54,0,0,1-.38-2.46,17.45,17.45,0,0,1,.13-2.8,14.92,14.92,0,0,1,1-3.9,11.37,11.37,0,0,1,1.12-2.09,8.13,8.13,0,0,1,2.72-2.56A.61.61,0,0,0,21.5,10a6.21,6.21,0,0,0,.59-.26,1.94,1.94,0,0,0,1.07-1.44c.07-.34.1-.68.15-1s0-.75,0-1.12-.06-.82-.08-1.22V4.28h1.21c0,.46-.08.92-.08,1.38,0,.72,0,1.44.07,2.16a2.41,2.41,0,0,0,1,1.74,8.19,8.19,0,0,0,.68.47,9.27,9.27,0,0,1,4,4.79,15.8,15.8,0,0,1,1,8A12.34,12.34,0,0,1,29,28.26a38.15,38.15,0,0,1-2.75,3.45c-.36.43-.75.85-1.14,1.25a2.2,2.2,0,0,1-.51.4,1.28,1.28,0,0,1-1.54,0,4.5,4.5,0,0,1-.85-.72,34,34,0,0,1-3.88-5.07c-.43-.73-.77-1.52-1.15-2.29Zm13.57-4.52a13.3,13.3,0,0,0-.29-2.89A11.78,11.78,0,0,0,28.43,13a7.38,7.38,0,0,0-2.89-2.48,3.81,3.81,0,0,0-2.35-.33,5.68,5.68,0,0,0-2.78,1.49,9.62,9.62,0,0,0-2.54,4.09A15.32,15.32,0,0,0,17,21.4a10.51,10.51,0,0,0,.28,2.09,13.82,13.82,0,0,0,2.44,5.06c.72,1,1.49,1.93,2.26,2.88.34.41.71.8,1.09,1.18a.93.93,0,0,0,1.44,0,9.46,9.46,0,0,0,.75-.8c.86-1,1.73-2,2.56-3.08a13.34,13.34,0,0,0,2.07-3.63A12.54,12.54,0,0,0,30.66,20.59Z"/>
            <path class="cls-6" d="M30.66,20.59a12.54,12.54,0,0,1-.73,4.52,13.34,13.34,0,0,1-2.07,3.63c-.83,1-1.7,2.06-2.56,3.08a9.46,9.46,0,0,1-.75.8.93.93,0,0,1-1.44,0c-.38-.38-.75-.77-1.09-1.18-.77-.95-1.54-1.9-2.26-2.88a13.82,13.82,0,0,1-2.44-5.06A10.51,10.51,0,0,1,17,21.4a15.32,15.32,0,0,1,.83-5.66,9.62,9.62,0,0,1,2.54-4.09,5.68,5.68,0,0,1,2.78-1.49,3.81,3.81,0,0,1,2.35.33A7.38,7.38,0,0,1,28.43,13a11.78,11.78,0,0,1,1.94,4.73A13.3,13.3,0,0,1,30.66,20.59Zm-.89.22c0-.18,0-.36,0-.53-.08-.75-.12-1.52-.26-2.26a10,10,0,0,0-1.94-4.49,6,6,0,0,0-3.42-2.2,1,1,0,0,0-.34,0,5.84,5.84,0,0,0-2.91,1.46A8,8,0,0,0,19,15.52a13.33,13.33,0,0,0-1,5.43,12,12,0,0,0,.19,1.89,9.68,9.68,0,0,0,2.13,4.73c.61.77,1.23,1.52,1.86,2.26a15.7,15.7,0,0,0,1.18,1.27.74.74,0,0,0,1.08,0,4.47,4.47,0,0,0,.63-.6c.69-.8,1.36-1.61,2-2.42a14,14,0,0,0,1.53-2.2A11.26,11.26,0,0,0,29.77,20.81Z"/>
            <path class="cls-5" d="M29.77,20.81a11.26,11.26,0,0,1-1.22,5.09A14,14,0,0,1,27,28.1c-.67.81-1.34,1.62-2,2.42a4.47,4.47,0,0,1-.63.6.74.74,0,0,1-1.08,0,15.7,15.7,0,0,1-1.18-1.27c-.63-.74-1.25-1.49-1.86-2.26a9.68,9.68,0,0,1-2.13-4.73A12,12,0,0,1,17.92,21a13.33,13.33,0,0,1,1-5.43,8,8,0,0,1,1.9-2.77,5.84,5.84,0,0,1,2.91-1.46,1,1,0,0,1,.34,0,6,6,0,0,1,3.42,2.2A10,10,0,0,1,29.47,18c.14.74.18,1.51.26,2.26C29.75,20.45,29.76,20.63,29.77,20.81Zm-5.93.91v0c.36,0,.73,0,1.1-.05a1.23,1.23,0,0,0,1-.7,1.67,1.67,0,0,0,0-1.55,1.17,1.17,0,0,0-1-.72c-.7,0-1.41,0-2.11,0A1.35,1.35,0,0,0,21.51,20a1.43,1.43,0,0,0,1.41,1.75C23.23,21.73,23.53,21.72,23.84,21.72Zm0-6.27h0c-.29,0-.58,0-.87,0a1.19,1.19,0,0,0-1.2,1.15A1.27,1.27,0,0,0,23,18.14c.58,0,1.16,0,1.74,0A1.18,1.18,0,0,0,25.92,17a1.28,1.28,0,0,0-1.24-1.56C24.39,15.43,24.11,15.45,23.82,15.45ZM23.7,25v0h1a1.27,1.27,0,0,0,1.22-1.61,1.15,1.15,0,0,0-1.16-1.06,15.61,15.61,0,0,0-1.81,0,1.19,1.19,0,0,0-1.19,1.12A1.28,1.28,0,0,0,23,25C23.22,25,23.46,25,23.7,25Zm.15,2.84.74,0a1.14,1.14,0,0,0,0-2.27c-.51,0-1,0-1.55,0a1,1,0,0,0-1,.88,1.1,1.1,0,0,0,1.08,1.4C23.39,27.83,23.61,27.86,23.85,27.87Zm0-13v0c.29,0,.58,0,.87-.06a.85.85,0,0,0,.74-.62,1.33,1.33,0,0,0-.8-1.62,2.31,2.31,0,0,0-1.22-.12,1.38,1.38,0,0,0-1.22,1.07,1,1,0,0,0,.92,1.31Zm4,6.76c.54,0,.75-.06.92-.4a2.14,2.14,0,0,0,0-2.07.65.65,0,0,0-.49-.36c-.23,0-.46,0-.69,0a.76.76,0,0,0-.73.53,2.37,2.37,0,0,0-.13,1.39C26.83,21.43,27.08,21.64,27.8,21.65Zm-7.91,0c.55,0,.73-.07.9-.39a2.13,2.13,0,0,0,0-2.1.6.6,0,0,0-.46-.34c-.23,0-.46,0-.69,0a.78.78,0,0,0-.74.54,2.26,2.26,0,0,0-.11,1.36C18.89,21.41,19.18,21.65,19.89,21.65Zm.45-3.49c.56,0,.76-.15.89-.69a2.42,2.42,0,0,0-.09-1.57.63.63,0,0,0-1-.31,1.23,1.23,0,0,0-.31.29,2,2,0,0,0-.44,1.32A.84.84,0,0,0,20.34,18.16Zm-.14,4.12c-.53,0-.79.14-.92.53a2,2,0,0,0,.62,2A.66.66,0,0,0,21,24.5a2.45,2.45,0,0,0,.06-1.56C20.93,22.42,20.74,22.28,20.2,22.28Zm6.12-5.48h0c0,.16,0,.31.05.47.13.75.39.94,1.14.88h.08a.71.71,0,0,0,.59-.46,1.94,1.94,0,0,0-.67-2.11.63.63,0,0,0-1,.3A8.83,8.83,0,0,0,26.32,16.8Zm.16,6.85a8.21,8.21,0,0,0,.27,1,.56.56,0,0,0,.83.3,1.3,1.3,0,0,0,.45-.36,1.94,1.94,0,0,0,.44-1.34c0-.66-.32-.95-1-.94h-.16a.58.58,0,0,0-.62.43C26.61,23,26.56,23.31,26.48,23.65Zm-2.64,4.76-.38,0a.49.49,0,0,0-.48.37,1.06,1.06,0,0,0,.26,1.05,1,1,0,0,0,1,.11,1,1,0,0,0,.48-.95.57.57,0,0,0-.61-.59ZM26,26.53h.06a.48.48,0,0,0,0,.12c0,.2,0,.39.24.48a.54.54,0,0,0,.56-.08,1.27,1.27,0,0,0,.53-1,.5.5,0,0,0-.4-.56c-.39-.11-.57-.07-.71.22A6.86,6.86,0,0,0,26,26.53Zm-4.4,0a6.1,6.1,0,0,0-.28-.82c-.14-.29-.31-.33-.71-.22a.5.5,0,0,0-.4.54,1.26,1.26,0,0,0,.42.91.58.58,0,0,0,.67.18C21.59,27,21.57,26.79,21.64,26.55ZM26,14.11a3.39,3.39,0,0,0,.2.63c.13.3.31.34.68.22a.46.46,0,0,0,.33-.55,1.18,1.18,0,0,0-.38-.75.51.51,0,0,0-.59-.15C26,13.6,26,13.82,26,14.11Zm-4.22-.06c-.06-.23-.06-.46-.3-.55a.55.55,0,0,0-.6.19,1.12,1.12,0,0,0-.35.86.46.46,0,0,0,.4.43c.32.08.46,0,.57-.18A6.09,6.09,0,0,0,21.75,14.05Z"/>
            <path class="cls-7" d="M23.84,21.72c-.31,0-.61,0-.92,0A1.43,1.43,0,0,1,21.51,20a1.35,1.35,0,0,1,1.35-1.24c.7,0,1.41,0,2.11,0a1.17,1.17,0,0,1,1,.72A1.67,1.67,0,0,1,26,21a1.23,1.23,0,0,1-1,.7c-.37,0-.74,0-1.1.05Z"/>
            <path class="cls-7" d="M23.82,15.45c.29,0,.57,0,.86,0A1.28,1.28,0,0,1,25.92,17a1.18,1.18,0,0,1-1.2,1.12c-.58,0-1.16,0-1.74,0a1.27,1.27,0,0,1-1.23-1.53A1.19,1.19,0,0,1,23,15.46c.29,0,.58,0,.87,0Z"/>
            <path class="cls-7" d="M23.7,25c-.24,0-.48,0-.72,0a1.28,1.28,0,0,1-1.23-1.56,1.19,1.19,0,0,1,1.19-1.12,15.61,15.61,0,0,1,1.81,0,1.15,1.15,0,0,1,1.16,1.06A1.27,1.27,0,0,1,24.69,25h-1Z"/>
            <path class="cls-8" d="M23.85,27.87c-.24,0-.46,0-.69,0a1.1,1.1,0,0,1-1.08-1.4,1,1,0,0,1,1-.88c.52,0,1,0,1.55,0a1.14,1.14,0,0,1,0,2.27Z"/>
            <path class="cls-8" d="M23.84,14.89h-.71a1,1,0,0,1-.92-1.31,1.38,1.38,0,0,1,1.22-1.07,2.31,2.31,0,0,1,1.22.12,1.33,1.33,0,0,1,.8,1.62.85.85,0,0,1-.74.62c-.29,0-.58,0-.87.06Z"/>
            <path class="cls-8" d="M27.8,21.65c-.72,0-1-.22-1.11-.93a2.37,2.37,0,0,1,.13-1.39.76.76,0,0,1,.73-.53c.23,0,.46,0,.69,0a.65.65,0,0,1,.49.36,2.14,2.14,0,0,1,0,2.07C28.55,21.59,28.34,21.65,27.8,21.65Z"/>
            <path class="cls-8" d="M19.89,21.65c-.71,0-1-.24-1.13-.95a2.26,2.26,0,0,1,.11-1.36.78.78,0,0,1,.74-.54c.23,0,.46,0,.69,0a.6.6,0,0,1,.46.34,2.13,2.13,0,0,1,0,2.1C20.62,21.58,20.44,21.64,19.89,21.65Z"/>
            <path class="cls-9" d="M20.34,18.16a.84.84,0,0,1-1-1,2,2,0,0,1,.44-1.32,1.23,1.23,0,0,1,.31-.29.63.63,0,0,1,1,.31,2.42,2.42,0,0,1,.09,1.57C21.1,18,20.9,18.16,20.34,18.16Z"/>
            <path class="cls-8" d="M20.2,22.28c.54,0,.73.14.86.66A2.45,2.45,0,0,1,21,24.5a.66.66,0,0,1-1.1.32,2,2,0,0,1-.62-2C19.41,22.42,19.67,22.27,20.2,22.28Z"/>
            <path class="cls-8" d="M26.32,16.8a8.83,8.83,0,0,1,.23-.92.63.63,0,0,1,1-.3,1.94,1.94,0,0,1,.67,2.11.71.71,0,0,1-.59.46h-.08c-.75.06-1-.13-1.14-.88,0-.16,0-.31-.05-.47Z"/>
            <path class="cls-8" d="M26.48,23.65c.08-.34.13-.65.23-.94a.58.58,0,0,1,.62-.43h.16c.66,0,1,.28,1,.94A1.94,1.94,0,0,1,28,24.56a1.3,1.3,0,0,1-.45.36.56.56,0,0,1-.83-.3A8.21,8.21,0,0,1,26.48,23.65Z"/>
            <path class="cls-10" d="M23.84,28.41l.29,0a.57.57,0,0,1,.61.59,1,1,0,0,1-.48.95,1,1,0,0,1-1-.11A1.06,1.06,0,0,1,23,28.81a.49.49,0,0,1,.48-.37Z"/>
            <path class="cls-10" d="M26,26.53a6.86,6.86,0,0,1,.28-.8c.14-.29.32-.33.71-.22a.5.5,0,0,1,.4.56,1.27,1.27,0,0,1-.53,1,.54.54,0,0,1-.56.08c-.2-.09-.22-.28-.24-.48a.48.48,0,0,1,0-.12Z"/>
            <path class="cls-9" d="M21.64,26.55c-.07.24-.05.49-.3.59a.58.58,0,0,1-.67-.18,1.26,1.26,0,0,1-.42-.91.5.5,0,0,1,.4-.54c.4-.11.57-.07.71.22A6.1,6.1,0,0,1,21.64,26.55Z"/>
            <path class="cls-11" d="M26,14.11c0-.29,0-.51.24-.6a.51.51,0,0,1,.59.15,1.18,1.18,0,0,1,.38.75.46.46,0,0,1-.33.55c-.37.12-.55.08-.68-.22A3.39,3.39,0,0,1,26,14.11Z"/>
            <path class="cls-10" d="M21.75,14.05a6.09,6.09,0,0,1-.28.75c-.11.23-.25.26-.57.18a.46.46,0,0,1-.4-.43,1.12,1.12,0,0,1,.35-.86.55.55,0,0,1,.6-.19C21.69,13.59,21.69,13.82,21.75,14.05Z"/>
          </g>
        </g>
      </g>
    </g>
  </g>
</svg>
