<svg xmlns="http://www.w3.org/2000/svg" viewBox="0 0 37.77 37.77">
  <defs>
    <style>
      .cls-1 {
        fill: #fff;
      }

      .cls-2 {
        fill: #979747;
      }

      .cls-3 {
        fill: #5a2a2c;
      }
    </style>
  </defs>
  <g id="Layer_2" data-name="Layer 2">
    <g id="assets">
      <g>
        <rect class="cls-1" width="37.77" height="37.77"/>
        <g>
          <circle class="cls-2" cx="18.88" cy="18.88" r="18.88"/>
          <g>
            <path class="cls-3" d="M11.42,30.23C8.64,25.79,7.28,21.28,8,16.31A17.14,17.14,0,0,1,13.5,5.79a14.23,14.23,0,0,1,2.15-1.41,2,2,0,0,1,.69-.19c.91-.13,1.2.21.92,1.09-.36,1.12-.8,2.21-1.07,3.35a14.19,14.19,0,0,0,1.42,9.71,24.39,24.39,0,0,1,2.68,8.17,11.5,11.5,0,0,1-.67,5.78,6.81,6.81,0,0,1-.76,1.34,2,2,0,0,1-2.54.85,7.74,7.74,0,0,1-3.25-2.27C12.42,31.51,11.85,30.74,11.42,30.23Z"/>
            <path class="cls-3" d="M26.52,8.52c3.17,5,4.49,10.34,2.82,16.17a16.67,16.67,0,0,1-5,8.08,16.06,16.06,0,0,1-2.07,1.36,1,1,0,0,1-.51.16c-.38,0-.85,0-1.08-.16s-.09-.68,0-1c.38-1.47,1-2.91,1.2-4.4a14.4,14.4,0,0,0-1.76-8.87,21.14,21.14,0,0,1-2.61-9.47,9.6,9.6,0,0,1,1.25-5.13,2.26,2.26,0,0,1,3.35-1,10.42,10.42,0,0,1,3.67,3.18C26.05,7.77,26.27,8.16,26.52,8.52Z"/>
          </g>
        </g>
      </g>
    </g>
  </g>
</svg>
