<?xml version="1.0" encoding="utf-8"?>
<!-- Generator: Adobe Illustrator 16.0.0, SVG Export Plug-In . SVG Version: 6.00 Build 0)  -->
<!DOCTYPE svg PUBLIC "-//W3C//DTD SVG 1.1//EN" "http://www.w3.org/Graphics/SVG/1.1/DTD/svg11.dtd">
<svg version="1.1" id="Layer_1" xmlns="http://www.w3.org/2000/svg" xmlns:xlink="http://www.w3.org/1999/xlink" x="0px" y="0px"
	 width="600px" height="410.786px" viewBox="0 0 600 410.786" enable-background="new 0 0 600 410.786" xml:space="preserve">
<path fill="#A3A5A8" d="M584.189,198.446c-10.545,10.06-20.964,20.584-32.015,30.434c-48.593,43.13-102.161,78.119-164.398,98.533
	c-56.925,18.603-114.036,19.446-171.318,1.962c-1.645-0.506-3.248-1.16-4.64-1.666c13.751-13.308,27.376-26.446,41.696-40.24
	c28.662,14.194,59.791,15.271,90.708-0.021c48.3-23.959,68.672-82.105,46.209-132.006c-2.131-4.725-1.645-7.318,2.024-10.925
	c16.387-15.966,32.523-32.247,48.635-48.527c2.679-2.722,4.788-4.24,8.923-2.025c49.604,26.764,93.556,60.803,132.446,101.55
	C583.053,195.979,583.262,196.759,584.189,198.446z"/>
<path fill="#A3A5A8" d="M13.57,195.979C30.779,180.54,47.905,164.174,66,149.138c32.795-27.396,68.628-50.322,107.729-67.595
	c40.577-17.948,82.675-28.958,127.512-28.493c26.023,0.336,51.249,4.768,76.727,11.389c-13.708,13.33-26.912,26.194-40.789,39.649
	c-26.785-10.354-54.876-10.354-82.526,3.058c-45.303,22.167-67.257,74.809-50.744,122.409c2.151,6.158,1.203,9.701-3.48,14.215
	c-17.399,16.788-34.335,34.04-51.292,51.25c-2.868,2.849-4.978,4.008-8.984,1.75C93.67,270.217,51.849,237.844,15.13,198.91
	C14.814,198.615,14.646,198.066,13.57,195.979z"/>
<path fill="#A3A5A8" d="M478.148,34.785c-3.502,5.758-5.779,11.811-9.955,15.944C414.539,104.91,360.632,158.882,306.79,212.83
	c-53.212,53.275-106.36,106.591-159.76,159.676c-3.712,3.712-8.605,7.233-13.583,8.688c-8.9,2.658-17.568-1.688-21.934-9.259
	c-4.85-8.268-3.816-17.567,3.354-24.949c16.219-16.534,32.669-32.858,49.056-49.203C255.37,206.188,346.84,114.653,438.245,23.06
	c10.903-10.841,22.987-12.17,31.678-2.721C473.298,23.966,475.069,29.155,478.148,34.785z"/>
<path fill="#A3A5A8" d="M274.562,263.994c30.583-30.326,60.638-60.232,90.562-89.929c10.063,17.422,5.001,48.804-10.628,67.953
	C335.388,265.577,303.395,274.667,274.562,263.994z"/>
<path fill="#A3A5A8" d="M314.739,130.536c-3.499,1.35-7.129,4.239-10.355,3.838c-18.789-2.298-33.09,10.651-30.559,29.19
	c0.612,4.785-0.696,7.339-3.648,10.313c-13.055,12.907-25.921,26.005-40.05,40.178c-4.726-22.019-1.162-41.021,11.261-57.83
	c17.97-24.401,42.519-33.133,72.065-28.599C313.833,128.616,314.298,129.523,314.739,130.536z"/>
</svg>
